<svg xmlns="http://www.w3.org/2000/svg" width="920" height="340" viewBox="0 0 920 340">
  <rect width="100%" height="100%" fill="#ffffff" rx="18" />
  <text x="20" y="24" font-size="18" font-weight="700" fill="#0f172a">市场/指数窗口图</text>
  <text x="20" y="40" font-size="12" fill="#64748b">source=index_daily_bar_history | window=20d</text>
  <rect x="56" y="46" width="844" height="260" fill="#f8fafc" stroke="#cbd5e1" rx="12" />
  <line x1="56" y1="46.0" x2="900" y2="46.0" stroke="#e2e8f0" /><text x="8" y="50.0" font-size="11" fill="#64748b">15177.29</text><line x1="56" y1="111.0" x2="900" y2="111.0" stroke="#e2e8f0" /><text x="8" y="115.0" font-size="11" fill="#64748b">12261.70</text><line x1="56" y1="176.0" x2="900" y2="176.0" stroke="#e2e8f0" /><text x="8" y="180.0" font-size="11" fill="#64748b">9346.12</text><line x1="56" y1="241.0" x2="900" y2="241.0" stroke="#e2e8f0" /><text x="8" y="245.0" font-size="11" fill="#64748b">6430.54</text><line x1="56" y1="306.0" x2="900" y2="306.0" stroke="#e2e8f0" /><text x="8" y="310.0" font-size="11" fill="#64748b">3514.96</text>
  <polyline fill="none" stroke="#2563eb" stroke-width="2.5" points="56.0,294.6 100.4,294.6 144.8,294.6 189.3,294.6 233.7,294.6 278.1,294.6 322.5,294.6 366.9,294.6 411.4,294.6 455.8,294.6 500.2,294.6 544.6,294.6 589.1,294.6 633.5,294.6 677.9,294.6 722.3,294.6 766.7,293.3 811.2,293.3 855.6,292.8 900.0,293.1" /><polyline fill="none" stroke="#dc2626" stroke-width="2.5" points="56.0,61.1 100.4,61.1 144.8,61.1 189.3,61.1 233.7,61.1 278.1,61.1 322.5,61.1 366.9,61.1 411.4,61.1 455.8,61.1 500.2,61.1 544.6,61.1 589.1,61.1 633.5,61.1 677.9,61.1 722.3,61.1 766.7,50.4 811.2,50.4 855.6,46.0 900.0,49.0" /><polyline fill="none" stroke="#059669" stroke-width="2.5" points="56.0,306.0 100.4,306.0 144.8,306.0 189.3,306.0 233.7,306.0 278.1,306.0 322.5,306.0 366.9,306.0 411.4,306.0 455.8,306.0 500.2,306.0 544.6,303.5 589.1,303.5 633.5,302.4 677.9,302.4 722.3,302.4 766.7,302.1 811.2,302.1 855.6,300.7 900.0,301.4" />
  <text x="56" y="330" font-size="12" fill="#2563eb">上证指数</text><text x="206" y="330" font-size="12" fill="#dc2626">深证成指</text><text x="356" y="330" font-size="12" fill="#059669">创业板指</text>
</svg>